<?xml version="1.0" encoding="UTF-8" standalone="no"?>
<svg
   xmlns:dc="http://purl.org/dc/elements/1.1/"
   xmlns:cc="http://creativecommons.org/ns#"
   xmlns:rdf="http://www.w3.org/1999/02/22-rdf-syntax-ns#"
   xmlns:svg="http://www.w3.org/2000/svg"
   xmlns="http://www.w3.org/2000/svg"
   xmlns:sodipodi="http://sodipodi.sourceforge.net/DTD/sodipodi-0.dtd"
   xmlns:inkscape="http://www.inkscape.org/namespaces/inkscape"
   viewBox="0 0 211.62 222.24"
   version="1.1"
   id="svg118"
   sodipodi:docname="OGPC_connections_logo.svg"
   inkscape:version="1.0.2-2 (e86c870879, 2021-01-15)">
  <metadata
     id="metadata122">
    <rdf:RDF>
      <cc:Work
         rdf:about="">
        <dc:format>image/svg+xml</dc:format>
        <dc:type
           rdf:resource="http://purl.org/dc/dcmitype/StillImage" />
      </cc:Work>
    </rdf:RDF>
  </metadata>
  <sodipodi:namedview
     pagecolor="#ffffff"
     bordercolor="#666666"
     borderopacity="1"
     objecttolerance="10"
     gridtolerance="10"
     guidetolerance="10"
     inkscape:pageopacity="0"
     inkscape:pageshadow="2"
     inkscape:window-width="1850"
     inkscape:window-height="1234"
     id="namedview120"
     showgrid="false"
     inkscape:zoom="1.1541576"
     inkscape:cx="24.056189"
     inkscape:cy="-80.70376"
     inkscape:window-x="0"
     inkscape:window-y="0"
     inkscape:window-maximized="0"
     inkscape:current-layer="svg118" />
  <defs
     id="defs4">
    <style
       id="style2">.cls-1{fill:#231f20;}.cls-2{fill:#39afe4;}.cls-3{fill:none;stroke:#231f20;stroke-miterlimit:10;stroke-width:3px;}</style>
  </defs>
  <title
     id="title6">Asset 6</title>
  <path
     class="cls-1"
     d="M 12.32,222.21 H 5.07 A 5,5 0 0 1 0,217.14 v -9.86 a 5,5 0 0 1 5.07,-5.07 h 7.36 a 1.4,1.4 0 0 1 1.4,1.57 1.48,1.48 0 0 1 -1.51,1.65 H 4.9 a 1.57,1.57 0 0 0 -1.62,1.71 V 217.3 A 1.65,1.65 0 0 0 4.9,219 h 7.39 c 1,0 1.4,0.7 1.4,1.57 0,0.87 -0.42,1.6 -1.4,1.6 z"
     id="path8" />
  <path
     class="cls-1"
     d="m 34.94,217.11 a 5.17,5.17 0 0 1 -5.32,5.1 h -4.28 a 5.13,5.13 0 0 1 -5.32,-5.1 v -9.74 a 5.2,5.2 0 0 1 5.21,-5.15 h 4.51 a 5.17,5.17 0 0 1 5.21,5.15 z M 29.88,219 a 1.82,1.82 0 0 0 1.88,-1.76 V 207.15 A 1.76,1.76 0 0 0 30,205.38 h -5 a 1.71,1.71 0 0 0 -1.79,1.76 v 10.14 a 1.82,1.82 0 0 0 1.88,1.72 z"
     id="path10" />
  <path
     class="cls-1"
     d="m 55.83,220.84 a 1.44,1.44 0 0 1 -1.6,1.4 1.51,1.51 0 0 1 -1.68,-1.4 v -4.4 c -2.66,-2.91 -5.18,-5.8 -7.84,-8.74 0,0.08 0,0.08 0,0.11 v 13 a 1.44,1.44 0 0 1 -1.6,1.4 1.51,1.51 0 0 1 -1.68,-1.4 v -17.19 a 1.4,1.4 0 0 1 1.57,-1.46 2.08,2.08 0 0 1 1.82,0.92 c 2.49,2.8 5.18,5.82 7.73,8.54 v -8 a 1.52,1.52 0 0 1 1.68,-1.43 1.44,1.44 0 0 1 1.6,1.43 z"
     id="path12" />
  <path
     class="cls-1"
     d="m 77.19,220.84 a 1.44,1.44 0 0 1 -1.6,1.4 1.51,1.51 0 0 1 -1.68,-1.4 v -4.4 c -2.66,-2.91 -5.18,-5.8 -7.84,-8.74 0,0.08 0,0.08 0,0.11 v 13 a 1.44,1.44 0 0 1 -1.6,1.4 1.51,1.51 0 0 1 -1.68,-1.4 v -17.19 a 1.4,1.4 0 0 1 1.54,-1.46 2.08,2.08 0 0 1 1.82,0.92 c 2.49,2.8 5.18,5.82 7.73,8.54 v -8 a 1.52,1.52 0 0 1 1.68,-1.43 1.44,1.44 0 0 1 1.6,1.43 z"
     id="path14" />
  <path
     class="cls-1"
     d="m 95.31,218.88 c 1,0 1.4,0.7 1.4,1.6 0,0.9 -0.42,1.57 -1.4,1.57 H 84.17 v -19.66 h 11.14 c 1,0 1.4,0.7 1.4,1.57 0,0.87 -0.42,1.6 -1.4,1.6 h -7.92 v 5.1 h 5.94 a 1.4,1.4 0 0 1 1.43,1.6 1.38,1.38 0 0 1 -1.43,1.57 h -5.94 v 5.07 z"
     id="path16" />
  <path
     class="cls-1"
     d="m 114.77,222.21 h -7.25 a 5,5 0 0 1 -5.07,-5.07 v -9.86 a 5,5 0 0 1 5.07,-5.07 h 7.36 a 1.4,1.4 0 0 1 1.4,1.57 1.48,1.48 0 0 1 -1.51,1.65 h -7.42 a 1.57,1.57 0 0 0 -1.62,1.71 v 10.16 a 1.65,1.65 0 0 0 1.62,1.71 h 7.39 c 1,0 1.4,0.7 1.4,1.57 0,0.87 -0.42,1.6 -1.4,1.6 z"
     id="path18" />
  <path
     class="cls-1"
     d="m 130.7,220.84 a 1.51,1.51 0 0 1 -1.68,1.4 1.57,1.57 0 0 1 -1.74,-1.4 v -15.29 h -4.48 c -1,0 -1.4,-0.64 -1.4,-1.54 0,-0.9 0.42,-1.62 1.4,-1.62 h 12.4 a 1.43,1.43 0 0 1 1.4,1.62 1.36,1.36 0 0 1 -1.4,1.54 h -4.5 z"
     id="path20" />
  <path
     class="cls-1"
     d="m 148.79,219 a 1.55,1.55 0 0 1 0,3.08 h -6.38 A 1.36,1.36 0 0 1 141,220.5 c 0,-0.92 0.45,-1.54 1.43,-1.54 H 144 v -13.5 h -1.57 c -1,0 -1.43,-0.62 -1.43,-1.54 a 1.36,1.36 0 0 1 1.43,-1.54 h 6.38 a 1.55,1.55 0 0 1 0,3.08 h -1.54 V 219 Z"
     id="path22" />
  <path
     class="cls-1"
     d="m 170.57,217.11 a 5.17,5.17 0 0 1 -5.32,5.1 H 161 a 5.13,5.13 0 0 1 -5.32,-5.1 v -9.74 a 5.2,5.2 0 0 1 5.21,-5.15 h 4.51 a 5.17,5.17 0 0 1 5.21,5.15 z M 165.5,219 a 1.82,1.82 0 0 0 1.88,-1.76 v -10.09 a 1.76,1.76 0 0 0 -1.79,-1.76 h -5 a 1.71,1.71 0 0 0 -1.79,1.76 v 10.14 a 1.82,1.82 0 0 0 1.88,1.76 z"
     id="path24" />
  <path
     class="cls-1"
     d="m 191.46,220.84 a 1.44,1.44 0 0 1 -1.6,1.4 1.51,1.51 0 0 1 -1.68,-1.4 v -4.4 c -2.66,-2.91 -5.18,-5.8 -7.84,-8.74 0,0.08 0,0.08 0,0.11 v 13 a 1.44,1.44 0 0 1 -1.6,1.4 1.51,1.51 0 0 1 -1.68,-1.4 v -17.19 a 1.4,1.4 0 0 1 1.54,-1.46 2.08,2.08 0 0 1 1.82,0.92 c 2.49,2.8 5.18,5.82 7.73,8.54 v -8 a 1.52,1.52 0 0 1 1.68,-1.43 1.44,1.44 0 0 1 1.6,1.43 z"
     id="path26" />
  <path
     class="cls-1"
     d="m 211.62,217.45 a 4.63,4.63 0 0 1 -4.9,4.73 h -6.92 a 1.5,1.5 0 0 1 -1.51,-1.65 1.38,1.38 0 0 1 1.51,-1.53 h 7.08 a 1.4,1.4 0 0 0 1.51,-1.6 v -2.07 a 1.42,1.42 0 0 0 -1.32,-1.46 l -4.79,-0.48 c -2.66,-0.31 -4.65,-2.07 -4.65,-4.65 V 207 a 4.75,4.75 0 0 1 4.9,-4.73 h 6.69 a 1.48,1.48 0 0 1 1.51,1.62 1.43,1.43 0 0 1 -1.51,1.51 h -6.92 a 1.46,1.46 0 0 0 -1.46,1.57 V 209 a 1.34,1.34 0 0 0 1.32,1.29 l 4.76,0.48 a 4.89,4.89 0 0 1 4.68,4.7 z"
     id="path28" />
  <rect
     class="cls-1"
     x="34.8274"
     y="113.24888"
     width="41.959999"
     height="3"
     transform="rotate(-15.87)"
     id="rect30" />
  <rect
     class="cls-1"
     x="-133.02835"
     y="104.51453"
     width="42.93"
     height="3"
     transform="rotate(-89.83)"
     id="rect32" />
  <polygon
     class="cls-1"
     points="129.5,168.78 105.51,135.72 81.63,168.7 79.2,166.94 105.51,130.61 131.93,167.02 "
     id="polygon34" />
  <circle
     class="cls-2"
     cx="71.158119"
     cy="154.26944"
     r="6.98"
     transform="rotate(-13.63)"
     id="circle36" />
  <path
     class="cls-1"
     d="m 105.51,126.18 a 7,7 0 1 1 -1.65,0.2 7,7 0 0 1 1.65,-0.2 m 0,-3 v 0 a 10,10 0 1 0 9.69,7.63 10,10 0 0 0 -9.69,-7.63 z"
     id="path38" />
  <circle
     class="cls-2"
     cx="38.602032"
     cy="182.03833"
     r="6.98"
     transform="rotate(-13.63)"
     id="circle40" />
  <path
     class="cls-1"
     d="m 80.42,160.85 a 7,7 0 1 1 -1.65,0.2 7,7 0 0 1 1.65,-0.2 m 0,-3 v 0 a 10,10 0 0 0 -2.36,0.28 10,10 0 0 0 2.34,19.67 10,10 0 0 0 2.36,-0.28 10,10 0 0 0 -2.34,-19.67 z"
     id="path42" />
  <rect
     class="cls-1"
     x="32.574535"
     y="89.484901"
     width="3"
     height="42.93"
     transform="rotate(-35.78)"
     id="rect44" />
  <polygon
     class="cls-1"
     points="81.65,54.84 38.87,40.87 39.8,38.02 78.64,50.7 78.61,9.98 81.61,9.97 "
     id="polygon46" />
  <circle
     class="cls-2"
     cx="11.788257"
     cy="95.233917"
     r="6.98"
     transform="rotate(-49.58)"
     id="circle48" />
  <path
     class="cls-1"
     d="m 80.15,45.79 a 7,7 0 1 1 -5.31,2.45 6.95,6.95 0 0 1 5.31,-2.45 m 0,-3 v 0 a 10,10 0 1 0 6.46,2.38 10,10 0 0 0 -6.46,-2.38 z"
     id="path50" />
  <circle
     class="cls-2"
     cx="44.349152"
     cy="67.468681"
     r="6.98"
     transform="rotate(-49.58)"
     id="circle52" />
  <path
     class="cls-1"
     d="M 80.11,3 A 7,7 0 1 1 74.8,5.45 6.95,6.95 0 0 1 80.11,3 m 0,-3 V 0 A 10,10 0 1 0 86.57,2.38 10,10 0 0 0 80.11,0 Z"
     id="path54" />
  <path
     class="cls-1"
     d="m 49.28,38.65 a 10,10 0 0 0 -9.94,-9.18 v 0 a 10,10 0 1 0 9.94,9.18 z"
     id="path56" />
  <path
     class="cls-3"
     d="M 82.81,51.39"
     id="path58" />
  <rect
     class="cls-1"
     x="-8.0307655"
     y="137.01109"
     width="42.93"
     height="3"
     transform="rotate(-54.22)"
     id="rect60" />
  <polygon
     class="cls-1"
     points="131.08,54.84 131.12,9.97 134.12,9.98 134.09,50.7 172.93,38.02 173.86,40.87 "
     id="polygon62" />
  <circle
     class="cls-2"
     cx="66.725021"
     cy="126.13095"
     r="6.98"
     transform="rotate(-40.42)"
     id="circle64" />
  <path
     class="cls-1"
     d="m 132.58,45.79 a 7,7 0 1 1 -4.52,1.66 7,7 0 0 1 4.52,-1.66 m 0,-3 a 10,10 0 1 0 7.6,3.51 10,10 0 0 0 -7.6,-3.51 z"
     id="path66" />
  <circle
     class="cls-2"
     cx="106.43351"
     cy="142.45163"
     r="6.98"
     transform="rotate(-40.42)"
     id="circle68" />
  <path
     class="cls-1"
     d="m 173.39,32.47 a 7,7 0 1 1 -4.52,1.66 7,7 0 0 1 4.52,-1.66 m 0,-3 A 10,10 0 1 0 181,33 10,10 0 0 0 173.4,29.49 Z"
     id="path70" />
  <path
     class="cls-3"
     d="M 133.27,51.39"
     id="path72" />
  <circle
     class="cls-2"
     cx="-93.589622"
     cy="74.717453"
     r="6.98"
     transform="rotate(-83.69)"
     id="circle74" />
  <path
     class="cls-1"
     d="m 64,94.26 a 7,7 0 1 1 -7,6.21 7,7 0 0 1 7,-6.21 m 0,-3 v 0 a 10,10 0 0 0 -1.09,19.89 10.09,10.09 0 0 0 1.11,0.06 A 10,10 0 0 0 65.11,91.32 10.09,10.09 0 0 0 64,91.26 Z"
     id="path76" />
  <path
     class="cls-3"
     d="M 106,133"
     id="path78" />
  <polygon
     class="cls-1"
     points="39.03,135.83 36.66,133.99 61.72,101.72 23.38,87.99 24.39,85.16 66.63,100.29 "
     id="polygon80" />
  <circle
     class="cls-2"
     cx="5.4268346"
     cy="119.53532"
     r="6.98"
     transform="rotate(-29.83)"
     id="circle82" />
  <path
     class="cls-1"
     d="m 64.17,94 a 7,7 0 1 1 -3.47,1 7,7 0 0 1 3.47,-1 m 0,-3 v 0 a 10,10 0 1 0 8.66,5 10,10 0 0 0 -8.66,-5 z"
     id="path84" />
  <circle
     class="cls-2"
     cx="-22.338404"
     cy="86.988861"
     r="6.98"
     transform="rotate(-29.83)"
     id="circle86" />
  <path
     class="cls-1"
     d="m 23.88,79.6 a 7,7 0 1 1 -3.46,0.93 7,7 0 0 1 3.46,-0.93 m 0,-3 v 0 a 10,10 0 1 0 8.66,5 10,10 0 0 0 -8.66,-5 z"
     id="path88" />
  <rect
     class="cls-1"
     x="-58.133026"
     y="127.6991"
     width="3"
     height="41.959999"
     transform="rotate(-74.13)"
     id="rect90" />
  <circle
     class="cls-2"
     cx="136.56795"
     cy="116.97289"
     r="6.98"
     transform="rotate(-6.31)"
     id="circle92" />
  <path
     class="cls-1"
     d="m 148.61,94.26 a 7,7 0 0 1 0.76,13.91 7,7 0 0 1 -0.78,0 7,7 0 0 1 0,-14 m 0,-3 a 10.09,10.09 0 0 0 -1.11,0.06 10,10 0 0 0 1.09,19.89 10.09,10.09 0 0 0 1.11,-0.06 10,10 0 0 0 -1.09,-19.89 z"
     id="path94" />
  <polygon
     class="cls-1"
     points="173.55,135.83 145.95,100.29 188.19,85.16 189.2,87.99 150.86,101.72 175.92,133.99 "
     id="polygon96" />
  <circle
     class="cls-2"
     cx="-13.797332"
     cy="178.98976"
     r="6.98"
     transform="rotate(-60.17)"
     id="circle98" />
  <path
     class="cls-1"
     d="m 148.41,94 a 7,7 0 1 1 -6.06,3.51 6.94,6.94 0 0 1 6.06,-3.51 m 0,-3 a 10,10 0 1 0 5,1.32 10,10 0 0 0 -5,-1.32 z"
     id="path100" />
  <circle
     class="cls-2"
     cx="-30.103151"
     cy="218.69598"
     r="6.98"
     transform="rotate(-60.17)"
     id="circle102" />
  <path
     class="cls-1"
     d="m 174.74,127.93 a 7,7 0 1 1 -6.06,3.51 6.94,6.94 0 0 1 6.06,-3.51 m 0,-3 a 10,10 0 1 0 5,1.32 10,10 0 0 0 -5,-1.32 z"
     id="path104" />
  <path
     class="cls-1"
     d="m 46.5,129.94 a 10,10 0 0 0 -8.66,-5 v 0 a 10,10 0 1 0 8.66,5 z"
     id="path106" />
  <path
     class="cls-1"
     d="m 114,83.15 a 9.91,9.91 0 0 0 -6.69,-3.68 10.08,10.08 0 0 0 -1.11,-0.06 v 0 a 10,10 0 0 0 -1.09,19.89 10.1,10.1 0 0 0 1.11,0.06 10,10 0 0 0 7.78,-16.21 z"
     id="path108" />
  <path
     class="cls-1"
     d="m 140.22,3.51 a 10,10 0 1 0 -1.13,14.06 10,10 0 0 0 1.13,-14.06 z"
     id="path110" />
  <path
     class="cls-1"
     d="m 193.66,77.92 a 10,10 0 1 0 3.69,13.62 10,10 0 0 0 -3.69,-13.62 z"
     id="path112" />
  <path
     class="cls-1"
     d="m 140.41,165.55 a 10,10 0 0 0 -9.69,-7.63 v 0 a 10,10 0 0 0 -2.36,0.28 10,10 0 0 0 2.34,19.67 10,10 0 0 0 9.7,-12.33 z"
     id="path114" />
</svg>
